<svg xmlns="http://www.w3.org/2000/svg" viewBox="0 0 194.2 194"><defs><style>.cls-1{fill:#3b8dfe;}.cls-2{fill:#9e2c25;opacity:0;}.cls-3,.cls-4{fill:#fff;}.cls-4{stroke:#3b8dfe;stroke-miterlimit:10;}</style></defs><title>admin</title><g id="Capa_2" data-name="Capa 2"><g id="Capa_1-2" data-name="Capa 1"><rect class="cls-1" width="194" height="194" rx="22.45"/><path class="cls-2" d="M154.43,133.25v-4.88a4.82,4.82,0,0,0-4.56-3.28,5.19,5.19,0,0,0-.68,0V125l-4,2.3a5.25,5.25,0,0,1-7.17-1.92L134.89,120l-.18-.34a31,31,0,0,0,22.61,18.32A5.23,5.23,0,0,1,154.43,133.25Z"/><path class="cls-2" d="M182.05,127.13l-2.91-1.68.11.29a4.79,4.79,0,0,0-7.2,4.16c0,.14,0,.27,0,.41l0,0v3a5.25,5.25,0,0,1-2.89,4.69,31,31,0,0,0,18-10.72A5.24,5.24,0,0,1,182.05,127.13Z"/><path class="cls-2" d="M192.59,97.68a5.23,5.23,0,0,1-2.32,3.59l-3.06,2h.12a4.8,4.8,0,0,0-1.35,7.62l4.09,2.36a5.29,5.29,0,0,1,2.59,4,31.06,31.06,0,0,0-.07-19.53Z"/><path class="cls-2" d="M136.81,112.79,141.6,110h-.23a4.8,4.8,0,0,0-.22-5.23l-3.46-2-.45,0a5.52,5.52,0,0,0-.71,0l.73-.28-.37-.21A5.25,5.25,0,0,1,135,95.17l3.09-5.35a5.24,5.24,0,0,1,7.16-1.92l1.75,1v0l.11.09.84.48a4.75,4.75,0,0,0,2,.42,4.8,4.8,0,0,0,4.57-3.32V82.1a5.24,5.24,0,0,1,5.25-5.24h7.11a5.24,5.24,0,0,1,5.25,5.24v3.22h0a4.8,4.8,0,0,0,7.2,3.91v0l2.22-1.45a5.26,5.26,0,0,1,5.47-.17A31,31,0,0,0,134.45,119,5.25,5.25,0,0,1,136.81,112.79Z"/><path class="cls-3" d="M163.23,138.51h0Z"/><path class="cls-3" d="M190.07,113.25,186,110.89a4.8,4.8,0,0,1,1.35-7.62h-.12l3.06-2a5.23,5.23,0,0,0,2.32-3.59A31.18,31.18,0,0,0,187,87.63a5.26,5.26,0,0,0-5.47.17l-2.22,1.45v0a4.8,4.8,0,0,1-7.2-3.91h0V82.1a5.24,5.24,0,0,0-5.25-5.24h-7.11a5.24,5.24,0,0,0-5.25,5.24v4.45a4.8,4.8,0,0,1-4.57,3.32,4.75,4.75,0,0,1-2-.42l-.84-.48-.11-.09v0l-1.75-1a5.24,5.24,0,0,0-7.16,1.92L135,95.17a5.25,5.25,0,0,0,1.92,7.17l.37.21-.73.28a5.52,5.52,0,0,1,.71,0l.45,0,3.46,2a4.8,4.8,0,0,1,.22,5.23h.23l-4.79,2.76a5.25,5.25,0,0,0-2.36,6.19c.09.22.17.43.26.64l.18.34,3.15,5.46a5.25,5.25,0,0,0,7.17,1.92l4-2.3v.1a5.19,5.19,0,0,1,.68,0,4.82,4.82,0,0,1,4.56,3.28v4.88a5.23,5.23,0,0,0,2.89,4.69,30.32,30.32,0,0,0,5.35.56h1.12a30.53,30.53,0,0,0,5.36-.56,5.25,5.25,0,0,0,2.89-4.69v-3l0,0c0-.14,0-.27,0-.41a4.79,4.79,0,0,1,7.2-4.16l-.11-.29,2.91,1.68a5.24,5.24,0,0,0,5.09.09,31,31,0,0,0,5.52-10A5.29,5.29,0,0,0,190.07,113.25Zm-26.67,4.22a9.86,9.86,0,0,1-9.77-8.35,9.7,9.7,0,0,1-.12-1.54,9.87,9.87,0,0,1,5.92-9.06,9.88,9.88,0,0,1,13.8,8,9.28,9.28,0,0,1,.06,1.06,9.89,9.89,0,0,1-9.89,9.89Z"/><path class="cls-1" d="M173.29,107.58a9.28,9.28,0,0,0-.06-1.06,9.89,9.89,0,0,0-19.72,1.06,9.7,9.7,0,0,0,.12,1.54,9.89,9.89,0,0,0,19.66-1.54Z"/><path class="cls-4" d="M132.8,64.53a19.66,19.66,0,0,1-2.93,1.25,41.11,41.11,0,0,1,2.45,14,41.84,41.84,0,0,1-.31,5,12,12,0,0,0,8.45-11.47V57.78A23.29,23.29,0,0,1,132.8,64.53Z"/><path class="cls-4" d="M50.85,70.08c.71-.11,1.44-.25,2.2-.44a25,25,0,0,0,12-7.11h0a35.7,35.7,0,0,1,8.72-2.25C84.3,59,94.67,62.57,105.71,65a87.47,87.47,0,0,0,10.74,1.77c1.66.16,3.33.25,5,.27a24.7,24.7,0,0,0,8.39-1.26,19.66,19.66,0,0,0,2.93-1.25,23.29,23.29,0,0,0,7.66-6.75l0,0c11-14.43,11.86-36.31,8.54-44.15a16.49,16.49,0,0,0-1.66-3.2,3.89,3.89,0,0,0-2.79-1.92,3.32,3.32,0,0,0-1.92.62c-7.13,4.5-10.88,15-20.64,14.4H84.74A31.64,31.64,0,0,0,60.05,35.32a11.94,11.94,0,0,0-7-2.26h0a12,12,0,0,0-12,12V71.33A12,12,0,0,0,49.8,82.89c-.07-1-.11-2-.11-3.07A41.1,41.1,0,0,1,50.85,70.08Z"/><path class="cls-4" d="M132,84.86a41.84,41.84,0,0,0,.31-5,41.11,41.11,0,0,0-2.45-14A24.7,24.7,0,0,1,121.48,67c-1.7,0-3.37-.11-5-.27A87.47,87.47,0,0,1,105.71,65c-11-2.43-21.41-6-31.94-4.72a35.7,35.7,0,0,0-8.72,2.25h0a25,25,0,0,1-12,7.11c-.76.19-1.49.33-2.2.44a41.1,41.1,0,0,0-1.16,9.74c0,1,0,2.06.11,3.07a41.32,41.32,0,0,0,82.21,2Z"/><path class="cls-4" d="M118.44,127.13l-.1.19c-3.22,6.59-13.57,11.64-26,12-13.38.43-24.71-4.67-27.44-11.82C43.1,133.94,26.79,147.63,22.2,164l.32.17C38.4,172.66,60.78,178,85.81,178.39h0q4.39.06,8.9-.07c25.39-.81,48.29-6.58,65.08-15.31a36.88,36.88,0,0,0-4-9.94h0C148.86,141.24,135.36,131.9,118.44,127.13Z"/></g></g></svg>