<?xml version="1.0" encoding="utf-8"?>
<!-- Generator: Adobe Illustrator 23.0.0, SVG Export Plug-In . SVG Version: 6.00 Build 0)  -->
<svg version="1.1" id="Capa_1" xmlns="http://www.w3.org/2000/svg" xmlns:xlink="http://www.w3.org/1999/xlink" x="0px" y="0px"
	 viewBox="0 0 100 100" style="enable-background:new 0 0 100 100;" xml:space="preserve">
<style type="text/css">
	.st0{opacity:0.85;fill:#FFFFFF;}
</style>
<path class="st0" d="M77.6,45.9H34.2l22.2-15.6c1.8-1.3,2.3-3.8,1-5.6l0,0c-1.3-1.8-3.8-2.3-5.6-1L19.1,46.7
	c-0.9,0.6-1.4,1.5-1.6,2.4c0,0,0,0.1,0,0.1c0,0.2,0,0.3-0.1,0.5c0,0.1,0,0.2,0,0.3c0,0.1,0,0.2,0,0.3c0,0.2,0,0.3,0.1,0.5
	c0,0,0,0.1,0,0.1c0.2,0.9,0.8,1.8,1.6,2.4l32.8,22.9c1.8,1.3,4.3,0.8,5.6-1h0c1.3-1.8,0.8-4.3-1-5.6L34.2,54.1h43.3
	c2.3,0,4.1-1.8,4.1-4.1C81.7,47.7,79.8,45.9,77.6,45.9z"/>
</svg>
