<?xml version="1.0" encoding="utf-8"?>
<!-- Generator: Adobe Illustrator 23.0.0, SVG Export Plug-In . SVG Version: 6.00 Build 0)  -->
<svg version="1.1" id="Capa_1" xmlns="http://www.w3.org/2000/svg" xmlns:xlink="http://www.w3.org/1999/xlink" x="0px" y="0px"
	 viewBox="0 0 1920 1080" style="enable-background:new 0 0 1920 1080;" xml:space="preserve">
<style type="text/css">
	.st0{fill:url(#SVGID_1_);}
</style>
<linearGradient id="SVGID_1_" gradientUnits="userSpaceOnUse" x1="263.6565" y1="630.6888" x2="1450.9036" y2="-633.6453">
	<stop  offset="3.506325e-02" style="stop-color:#6DAEFE"/>
	<stop  offset="0.1857" style="stop-color:#609FFE"/>
	<stop  offset="0.4594" style="stop-color:#4E8AFF"/>
	<stop  offset="0.7271" style="stop-color:#437DFF"/>
	<stop  offset="0.98" style="stop-color:#3F79FF"/>
</linearGradient>
<path class="st0" d="M1920-98.9c-0.6-1.2-1.2-2.3-1.8-3.5V-386H0V-5v114v151v89.4v273.8C133.8,573.9,296.3,545,471.6,545
	c113.7,0,222.1,12.2,320.7,34.2c60.1,15.3,126.8,23.8,197.1,23.8c209.7,0,387.9-75.8,453.1-181.3c37.7-41.5,93.7-70.3,157.8-77.7
	c0.1-0.1,0.1-0.3,0.2-0.4C1745.2,329,1866.1,252,1920,147V-98.9z"/>
</svg>
