<svg xmlns="http://www.w3.org/2000/svg" viewBox="0 0 194 194"><defs><style>.cls-1{fill:#3b8dfe;}.cls-2{fill:#fff;}.cls-2,.cls-3{stroke:#3b8dfe;stroke-miterlimit:10;}.cls-3{fill:none;}</style></defs><title>doc_blue</title><g id="Capa_2" data-name="Capa 2"><g id="Capa_1-2" data-name="Capa 1"><rect class="cls-1" width="194" height="194" rx="22.45"/><path class="cls-2" d="M135.28,65.76a19.26,19.26,0,0,1-2.7,1.16,38,38,0,0,1,2.26,13,39.5,39.5,0,0,1-.28,4.65,11.09,11.09,0,0,0,7.79-10.58V59.53A21.45,21.45,0,0,1,135.28,65.76Z"/><path class="cls-2" d="M59.65,70.88a19.73,19.73,0,0,0,2-.41,23,23,0,0,0,11.08-6.55h0a32.93,32.93,0,0,1,8-2.07c9.72-1.2,19.3,2.11,29.48,4.36a82.57,82.57,0,0,0,9.91,1.63q2.3.23,4.65.24a22.67,22.67,0,0,0,7.74-1.15,19.26,19.26,0,0,0,2.7-1.16,21.45,21.45,0,0,0,7.07-6.23l0,0c10.2-13.32,10.94-33.51,7.88-40.75a15.43,15.43,0,0,0-1.54-2.95A3.53,3.53,0,0,0,146.15,14a2.94,2.94,0,0,0-1.77.57c-6.58,4.15-10,13.84-19,13.29H90.93A29.17,29.17,0,0,0,68.15,38.81a11,11,0,0,0-6.47-2.09h0A11.08,11.08,0,0,0,50.6,47.8V72A11.08,11.08,0,0,0,58.69,82.7c-.07-.93-.1-1.88-.1-2.83A38.61,38.61,0,0,1,59.65,70.88Z"/><path class="cls-2" d="M134.56,84.52a39.5,39.5,0,0,0,.28-4.65,38,38,0,0,0-2.26-13,22.67,22.67,0,0,1-7.74,1.15q-2.36,0-4.65-.24a82.57,82.57,0,0,1-9.91-1.63C100.1,64,90.52,60.64,80.8,61.84a32.93,32.93,0,0,0-8,2.07h0a23,23,0,0,1-11.08,6.55,19.73,19.73,0,0,1-2,.41,38.61,38.61,0,0,0-1.06,9c0,.95,0,1.9.1,2.83a38.13,38.13,0,0,0,75.87,1.82Z"/><path class="cls-2" d="M122,123.53l-.1.18c-3,6.08-12.52,10.74-24,11.11-12.36.39-22.81-4.31-25.33-10.91-20.1,5.91-35.15,18.54-39.39,33.6l.3.16c14.65,7.88,35.3,12.82,58.41,13.17h0q4.07.06,8.22-.07c23.43-.75,44.56-6.07,60.05-14.13a34.16,34.16,0,0,0-3.73-9.17h0C150.11,136.55,137.64,127.93,122,123.53Z"/><path class="cls-3" d="M132.52,67.35a23,23,0,0,1-7.75,1.15c-1.57,0-3.11-.1-4.64-.24H120a15.5,15.5,0,1,1-19.2,15c0-.29,0-.58,0-.87a4.5,4.5,0,0,0-4.77-1.88,4.27,4.27,0,0,0-2.46,1.91c0,.28,0,.56,0,.84a15.45,15.45,0,1,1,0-.84,4.27,4.27,0,0,1,2.46-1.91,4.5,4.5,0,0,1,4.77,1.88A15.51,15.51,0,0,1,116.34,67.8h.13c-2.11-.32-4.19-.72-6.25-1.18C100,64.38,90.46,61.07,80.74,62.27a32.93,32.93,0,0,0-8,2.07h0A22.83,22.83,0,0,1,61.62,70.9a20.28,20.28,0,0,1-2,.41,38,38,0,0,0-1.07,9c0,1,0,1.9.11,2.83A38.12,38.12,0,0,0,134.49,85a37.58,37.58,0,0,0,.28-4.65A38,38,0,0,0,132.52,67.35Z"/></g></g></svg>