<svg xmlns="http://www.w3.org/2000/svg" viewBox="0 0 128.17 157.83"><defs><style>.cls-1{fill:#fff;}.cls-1,.cls-2{stroke:#3b8dfe;stroke-miterlimit:10;}.cls-2{fill:none;}</style></defs><title>Recurso _blanco</title><g id="Capa_2" data-name="Capa 2"><g id="Capa_1-2" data-name="Capa 1"><path class="cls-1" d="M102.66,52.23a19.26,19.26,0,0,1-2.7,1.16,38,38,0,0,1,2.26,13,37.45,37.45,0,0,1-.29,4.65,11.06,11.06,0,0,0,7.79-10.58V46A21.32,21.32,0,0,1,102.66,52.23Z"/><path class="cls-1" d="M27,57.36c.66-.11,1.33-.24,2-.41a23,23,0,0,0,11.07-6.56h0a32.56,32.56,0,0,1,8-2.08c9.72-1.2,19.29,2.11,29.48,4.36a82.24,82.24,0,0,0,9.91,1.63c1.53.15,3.08.23,4.64.25A23,23,0,0,0,100,53.39a19.26,19.26,0,0,0,2.7-1.16A21.32,21.32,0,0,0,109.72,46l0,0c10.2-13.32,11-33.51,7.89-40.75a15.43,15.43,0,0,0-1.54-2.95A3.55,3.55,0,0,0,113.53.5a3,3,0,0,0-1.78.57c-6.57,4.15-10,13.84-19,13.29H58.31A29.2,29.2,0,0,0,35.52,25.28a11,11,0,0,0-6.46-2.09h0A11.08,11.08,0,0,0,18,34.27V58.51a11.07,11.07,0,0,0,8.09,10.66C26,68.24,26,67.29,26,66.34A38,38,0,0,1,27,57.36Z"/><path class="cls-1" d="M101.93,71a37.45,37.45,0,0,0,.29-4.65,38,38,0,0,0-2.26-13,23,23,0,0,1-7.75,1.16c-1.56,0-3.11-.1-4.64-.25a82.24,82.24,0,0,1-9.91-1.63c-10.19-2.25-19.76-5.56-29.48-4.36a32.56,32.56,0,0,0-8,2.08h0A23,23,0,0,1,29.06,57c-.7.17-1.37.3-2,.41a38,38,0,0,0-1.07,9c0,1,0,1.9.11,2.83A38.12,38.12,0,0,0,101.93,71Z"/><path class="cls-1" d="M89.4,110a1.51,1.51,0,0,1-.09.18c-3,6.08-12.52,10.74-24,11.11C53,121.68,42.5,117,40,110.38,19.88,116.29,4.83,128.92.59,144l.3.15C15.54,152,36.19,157,59.29,157.31h0q4.07.06,8.21-.07c23.43-.75,44.57-6.07,60.06-14.13a34.16,34.16,0,0,0-3.73-9.17h0C117.48,123,105,114.4,89.4,110Z"/><path class="cls-2" d="M99.89,53.82A22.89,22.89,0,0,1,92.15,55c-1.57,0-3.12-.1-4.65-.24h-.08A15.5,15.5,0,1,1,68.21,69.78c0-.3,0-.59,0-.88A4.5,4.5,0,0,0,63.47,67,4.27,4.27,0,0,0,61,68.93c0,.28,0,.56,0,.85a15.45,15.45,0,1,1,0-.85A4.27,4.27,0,0,1,63.47,67a4.5,4.5,0,0,1,4.77,1.88A15.51,15.51,0,0,1,83.72,54.27h.13c-2.12-.32-4.2-.73-6.25-1.19-10.19-2.24-19.76-5.55-29.48-4.35a32.88,32.88,0,0,0-8,2.07h0A22.88,22.88,0,0,1,29,57.37a19.56,19.56,0,0,1-2,.41,38,38,0,0,0-1.07,9c0,1,0,1.9.1,2.83a38.13,38.13,0,0,0,75.87,1.82,39.63,39.63,0,0,0,.28-4.65A38,38,0,0,0,99.89,53.82Z"/></g></g></svg>