<svg xmlns="http://www.w3.org/2000/svg" viewBox="0 0 127 156.83"><defs><style>.cls-1{fill:#3b8dfe;}.cls-2{fill:#fff;}.cls-2,.cls-3{stroke:#3b8dfe;stroke-miterlimit:10;}.cls-3{fill:none;}</style></defs><title>Recurso 3</title><g id="Capa_2" data-name="Capa 2"><g id="Capa_1-2" data-name="Capa 1"><path class="cls-1" d="M102.07,51.73a19.26,19.26,0,0,1-2.7,1.16,38,38,0,0,1,2.26,13,37.45,37.45,0,0,1-.29,4.65,11.06,11.06,0,0,0,7.79-10.58V45.5A21.32,21.32,0,0,1,102.07,51.73Z"/><path class="cls-1" d="M26.44,56.86c.66-.11,1.34-.24,2-.41a23.09,23.09,0,0,0,11.08-6.56h0a32.56,32.56,0,0,1,8-2.08c9.72-1.2,19.29,2.11,29.48,4.36A82.24,82.24,0,0,0,87,53.8c1.53.15,3.08.23,4.65.25a23,23,0,0,0,7.74-1.16,19.26,19.26,0,0,0,2.7-1.16,21.32,21.32,0,0,0,7.06-6.23l0,0c10.2-13.32,11-33.51,7.89-40.75a15.43,15.43,0,0,0-1.54-2.95A3.55,3.55,0,0,0,112.94,0a2.94,2.94,0,0,0-1.77.57c-6.58,4.15-10,13.84-19,13.29H57.72A29.17,29.17,0,0,0,34.94,24.78a11.06,11.06,0,0,0-6.47-2.09h0A11.08,11.08,0,0,0,17.39,33.77V58a11.07,11.07,0,0,0,8.09,10.66c-.07-.93-.11-1.88-.11-2.83A38.53,38.53,0,0,1,26.44,56.86Z"/><path class="cls-2" d="M101.34,70.49a37.45,37.45,0,0,0,.29-4.65,38,38,0,0,0-2.26-13,23,23,0,0,1-7.74,1.16c-1.57,0-3.12-.1-4.65-.25a82.24,82.24,0,0,1-9.91-1.63c-10.19-2.25-19.76-5.56-29.48-4.36a32.56,32.56,0,0,0-8,2.08h0a23.09,23.09,0,0,1-11.08,6.56c-.69.17-1.37.3-2,.41a38.53,38.53,0,0,0-1.07,9c0,1,0,1.9.11,2.83a38.12,38.12,0,0,0,75.86,1.82Z"/><path class="cls-1" d="M88.81,109.5a1.51,1.51,0,0,1-.09.18c-3,6.08-12.52,10.74-24,11.11-12.35.39-22.8-4.31-25.32-10.91C19.29,115.79,4.24,128.42,0,143.49l.3.15c14.65,7.88,35.3,12.82,58.4,13.17h0q4.07.06,8.21-.07c23.43-.75,44.57-6.07,60.06-14.13a34.16,34.16,0,0,0-3.73-9.17h0C116.89,122.52,104.43,113.9,88.81,109.5Z"/><path class="cls-3" d="M99.3,53.32a22.89,22.89,0,0,1-7.74,1.15c-1.57,0-3.12-.1-4.65-.24h-.08a15.5,15.5,0,1,1-19.2,15.06c0-.3,0-.59,0-.88a4.5,4.5,0,0,0-4.77-1.88,4.27,4.27,0,0,0-2.46,1.91c0,.28,0,.56,0,.85a15.45,15.45,0,1,1,0-.85,4.27,4.27,0,0,1,2.46-1.91,4.5,4.5,0,0,1,4.77,1.88A15.51,15.51,0,0,1,83.13,53.77h.13c-2.11-.32-4.2-.73-6.25-1.19C66.82,50.35,57.25,47,47.53,48.24a33,33,0,0,0-8.05,2.07h0a22.88,22.88,0,0,1-11.07,6.56,20.28,20.28,0,0,1-2,.41,38,38,0,0,0-1.07,9c0,1,0,1.9.1,2.83a38.13,38.13,0,0,0,75.87,1.82,37.58,37.58,0,0,0,.28-4.65A38,38,0,0,0,99.3,53.32Z"/></g></g></svg>