<svg xmlns="http://www.w3.org/2000/svg" viewBox="0 0 194 194"><defs><style>.cls-1{fill:#3b8dfe;}.cls-2{fill:#fff;stroke:#3b8dfe;stroke-miterlimit:10;}</style></defs><title>est_blue</title><g id="Capa_2" data-name="Capa 2"><g id="Capa_1-2" data-name="Capa 1"><rect class="cls-1" width="194" height="194" rx="22.45"/><path class="cls-2" d="M55.82,131.88l.1-.06c2-1.14,4-2.21,6.19-3.19l.11,0,.11-.05,1.26-.55.51-.22.65-.27,1-.42.5-.2.62-.24q2.77-1,5.68-1.89c2.52,6.6,13,11.3,25.33,10.9,11.48-.36,21-5,24-11.1a1.51,1.51,0,0,1,.09-.18q3.21.9,6.23,2h0a38.53,38.53,0,0,1,6.38,2.48,39.39,39.39,0,0,1,5.7,3.44h0c1.38.86,2.69,1.76,4,2.7V133.2a17.61,17.61,0,0,0-17.61-17.6H112.06c-.64.28-1.29.55-2,.8a38.25,38.25,0,0,1-28.75-.8H68.2a17.6,17.6,0,0,0-17.6,17.6v2.06q2.48-1.78,5.22-3.38Z"/><path class="cls-2" d="M135.28,66.58a19.35,19.35,0,0,1-2.7,1.17,38,38,0,0,1,2.26,13,39.63,39.63,0,0,1-.28,4.65,11.09,11.09,0,0,0,7.79-10.58V60.36A21.31,21.31,0,0,1,135.28,66.58Z"/><path class="cls-2" d="M59.65,71.71a19.73,19.73,0,0,0,2-.41,22.93,22.93,0,0,0,11.08-6.56h0a32.93,32.93,0,0,1,8-2.07c9.72-1.2,19.3,2.11,29.48,4.35a80.63,80.63,0,0,0,9.91,1.64c1.53.14,3.08.23,4.65.24a22.92,22.92,0,0,0,7.74-1.15,19.35,19.35,0,0,0,2.7-1.17,21.31,21.31,0,0,0,7.07-6.22l0,0c10.2-13.31,10.94-33.5,7.88-40.74a15.43,15.43,0,0,0-1.54-2.95,3.53,3.53,0,0,0-2.57-1.77,3,3,0,0,0-1.77.56c-6.58,4.16-10,13.85-19,13.3H90.93A29.19,29.19,0,0,0,68.15,39.63a11,11,0,0,0-6.47-2.08h0A11.08,11.08,0,0,0,50.6,48.63V72.86a11.08,11.08,0,0,0,8.09,10.67c-.07-.93-.1-1.88-.1-2.83A38.54,38.54,0,0,1,59.65,71.71Z"/><path class="cls-2" d="M110.1,116.4c.67-.25,1.32-.52,2-.8a38.18,38.18,0,0,0,22.5-30.25,39.63,39.63,0,0,0,.28-4.65,38,38,0,0,0-2.26-13,22.92,22.92,0,0,1-7.74,1.15c-1.57,0-3.12-.1-4.65-.24A80.63,80.63,0,0,1,110.28,67c-10.18-2.24-19.76-5.55-29.48-4.35a32.93,32.93,0,0,0-8,2.07h0A22.93,22.93,0,0,1,61.68,71.3a19.73,19.73,0,0,1-2,.41,38.54,38.54,0,0,0-1.06,9c0,1,0,1.9.1,2.83A38.15,38.15,0,0,0,110.1,116.4Z"/><path class="cls-1" d="M62.11,128.63c-2.15,1-4.22,2.05-6.19,3.19C57.77,130.75,59.84,129.67,62.11,128.63Z"/><path class="cls-2" d="M136.84,147.6A59.44,59.44,0,0,0,138,166a115.24,115.24,0,0,0,22.2-8.55,34.16,34.16,0,0,0-3.73-9.17v0A45.26,45.26,0,0,0,144.3,135c-1.27-.94-2.58-1.84-4-2.7A59,59,0,0,0,136.84,147.6Z"/><path class="cls-2" d="M59.49,147.6a59.36,59.36,0,0,0-3.67-15.72q-2.74,1.59-5.22,3.38c-8.73,6.29-14.91,14.27-17.39,23.08l.3.16a102.77,102.77,0,0,0,24.45,9A59.3,59.3,0,0,0,59.49,147.6Z"/><path class="cls-1" d="M63.59,128l-1.26.55Z"/><path class="cls-2" d="M124.3,145.73a102.19,102.19,0,0,1,4-19.33q-3-1.14-6.23-2a1.51,1.51,0,0,0-.09.18c-3,6.07-12.53,10.74-24,11.1-12.36.4-22.81-4.3-25.33-10.9q-2.91.86-5.68,1.89l1.09-.4a101.4,101.4,0,0,1,4,19.5,101.67,101.67,0,0,1-.38,24.39,162.45,162.45,0,0,0,20.28,1.54h0c2.71,0,5.45,0,8.22-.06a169.8,169.8,0,0,0,24.39-2.53A101.39,101.39,0,0,1,124.3,145.73Z"/><path class="cls-1" d="M64.75,127.49l-.65.27Z"/><path class="cls-1" d="M66.3,126.87l-.5.2Z"/><path class="cls-2" d="M72,145.73a101.4,101.4,0,0,0-4-19.5l-1.09.4-.62.24-.5.2-1,.42-.65.27-.51.22-1.26.55-.11.05-.11,0c-2.27,1-4.34,2.12-6.19,3.19l-.1.06h0a59.36,59.36,0,0,1,3.67,15.72A59.3,59.3,0,0,1,58,167.53h0c2.11.59,4.42,1.15,6.92,1.62s4.66.76,6.76,1h0A101.67,101.67,0,0,0,72,145.73Z"/><path class="cls-2" d="M136.84,147.6a59,59,0,0,1,3.5-15.28h0a39.39,39.39,0,0,0-5.7-3.44,38.53,38.53,0,0,0-6.38-2.48h0a101.41,101.41,0,0,0-3.71,42.67h0c2.21-.35,4.55-.8,7-1.36,2.28-.52,4.44-1.09,6.46-1.69h0A59.44,59.44,0,0,1,136.84,147.6Z"/></g></g></svg>