<svg xmlns="http://www.w3.org/2000/svg" viewBox="0 0 127 156.83"><defs><style>.cls-1,.cls-3{fill:#fff;}.cls-1{stroke:#3b8dfe;stroke-miterlimit:10;}.cls-2{fill:#3b8dfe;}</style></defs><title>Recurso 4</title><g id="Capa_2" data-name="Capa 2"><g id="Capa_1-2" data-name="Capa 1"><path class="cls-1" d="M22.61,117l.1-.06c2-1.14,4-2.21,6.19-3.19l.11,0,.11,0,1.26-.55.51-.22.64-.27,1.06-.42.49-.19.63-.24c1.85-.69,3.74-1.33,5.68-1.9,2.52,6.6,13,11.3,25.32,10.91,11.49-.37,21.05-5,24-11.11a1.51,1.51,0,0,0,.09-.18c2.14.6,4.22,1.29,6.24,2h0a40.16,40.16,0,0,1,6.38,2.48,39.39,39.39,0,0,1,5.7,3.44h0q2.06,1.29,4,2.7v-1.82a17.6,17.6,0,0,0-17.6-17.6H78.85c-.64.29-1.3.56-2,.81a38.19,38.19,0,0,1-28.75-.81H35a17.6,17.6,0,0,0-17.6,17.6v2.06q2.47-1.79,5.22-3.38Z"/><path class="cls-2" d="M102.07,51.73a19.26,19.26,0,0,1-2.7,1.16,38,38,0,0,1,2.26,13,37.45,37.45,0,0,1-.29,4.65,11.06,11.06,0,0,0,7.79-10.58V45.5A21.32,21.32,0,0,1,102.07,51.73Z"/><path class="cls-2" d="M26.44,56.86c.66-.11,1.34-.24,2-.41a23.09,23.09,0,0,0,11.08-6.56h0a32.56,32.56,0,0,1,8-2.08c9.72-1.2,19.29,2.11,29.48,4.36A82.24,82.24,0,0,0,87,53.8c1.53.15,3.08.23,4.65.25a23,23,0,0,0,7.74-1.16,19.26,19.26,0,0,0,2.7-1.16,21.32,21.32,0,0,0,7.06-6.23l0,0c10.2-13.32,11-33.51,7.89-40.75a15.43,15.43,0,0,0-1.54-2.95A3.55,3.55,0,0,0,112.94,0a2.94,2.94,0,0,0-1.77.57c-6.58,4.15-10,13.84-19,13.29H57.72A29.17,29.17,0,0,0,34.94,24.78a11.06,11.06,0,0,0-6.47-2.09h0A11.08,11.08,0,0,0,17.39,33.77V58a11.07,11.07,0,0,0,8.09,10.66c-.07-.93-.11-1.88-.11-2.83A38.53,38.53,0,0,1,26.44,56.86Z"/><path class="cls-1" d="M76.89,101.55c.66-.25,1.32-.52,2-.81a38.13,38.13,0,0,0,22.49-30.25,37.45,37.45,0,0,0,.29-4.65,38,38,0,0,0-2.26-13,23,23,0,0,1-7.74,1.16c-1.57,0-3.12-.1-4.65-.25a82.24,82.24,0,0,1-9.91-1.63c-10.19-2.25-19.76-5.56-29.48-4.36a32.56,32.56,0,0,0-8,2.08h0a23.09,23.09,0,0,1-11.08,6.56c-.69.17-1.37.3-2,.41a38.53,38.53,0,0,0-1.07,9c0,1,0,1.9.11,2.83a38.15,38.15,0,0,0,51.41,32.88Z"/><path class="cls-2" d="M28.9,113.77c-2.15,1-4.22,2-6.19,3.19C24.56,115.9,26.63,114.81,28.9,113.77Z"/><path class="cls-2" d="M103.62,132.74a59.37,59.37,0,0,0,1.18,18.42,114.59,114.59,0,0,0,22.2-8.55,34.16,34.16,0,0,0-3.73-9.17h0a45.21,45.21,0,0,0-12.18-13.27q-1.89-1.41-4-2.7A59.43,59.43,0,0,0,103.62,132.74Z"/><path class="cls-2" d="M26.28,132.74A59.86,59.86,0,0,0,22.61,117q-2.74,1.59-5.22,3.38C8.66,126.69,2.48,134.67,0,143.49l.3.15a103.2,103.2,0,0,0,24.45,9A59.63,59.63,0,0,0,26.28,132.74Z"/><path class="cls-2" d="M30.38,113.12l-1.26.55Z"/><path class="cls-2" d="M91.09,130.88a101.53,101.53,0,0,1,4-19.34c-2-.75-4.1-1.44-6.24-2a1.51,1.51,0,0,1-.09.18c-3,6.08-12.52,10.74-24,11.11-12.35.39-22.8-4.31-25.32-10.91-1.94.57-3.83,1.21-5.68,1.9.37-.14.73-.28,1.09-.4a101.08,101.08,0,0,1,4,19.5,101.6,101.6,0,0,1-.38,24.38,164.33,164.33,0,0,0,20.27,1.55h0q4.07.06,8.21-.07a169.5,169.5,0,0,0,24.39-2.53A101.94,101.94,0,0,1,91.09,130.88Z"/><path class="cls-2" d="M31.53,112.63l-.64.27Z"/><path class="cls-2" d="M33.08,112l-.49.19Z"/><path class="cls-3" d="M38.81,130.88a101.08,101.08,0,0,0-4-19.5c-.36.12-.72.26-1.09.4l-.63.24-.49.19-1.06.42-.64.27-.51.22-1.26.55-.11,0-.11,0c-2.27,1-4.34,2.13-6.19,3.19l-.1.06h0a59.86,59.86,0,0,1,3.67,15.72,59.63,59.63,0,0,1-1.53,19.94h0c2.1.59,4.41,1.14,6.91,1.61s4.67.76,6.77,1h0A101.6,101.6,0,0,0,38.81,130.88Z"/><path class="cls-3" d="M103.62,132.74a59.43,59.43,0,0,1,3.51-15.28h0a39.39,39.39,0,0,0-5.7-3.44,40.16,40.16,0,0,0-6.38-2.48h0a101.66,101.66,0,0,0-3.72,42.67h0q3.33-.53,7-1.36c2.28-.52,4.43-1.09,6.46-1.69h0A59.37,59.37,0,0,1,103.62,132.74Z"/></g></g></svg>