<svg xmlns="http://www.w3.org/2000/svg" viewBox="0 0 128.17 157.83"><defs><style>.cls-1{fill:#fff;stroke:#3b8dfe;stroke-miterlimit:10;}.cls-2{fill:#3b8dfe;}</style></defs><title>Recurso 3__</title><g id="Capa_2" data-name="Capa 2"><g id="Capa_1-2" data-name="Capa 1"><path class="cls-1" d="M23.2,117.52l.1-.06c2-1.14,4-2.21,6.19-3.19l.11,0,.11,0,1.26-.55.51-.22.64-.27,1.06-.42.49-.19.63-.24c1.84-.69,3.74-1.33,5.68-1.9,2.52,6.6,13,11.3,25.32,10.91,11.49-.37,21-5,24-11.11a1.51,1.51,0,0,0,.09-.18c2.14.6,4.22,1.29,6.24,2h0a40.16,40.16,0,0,1,6.38,2.48,39.39,39.39,0,0,1,5.7,3.44h0q2.06,1.29,4,2.7v-1.82a17.6,17.6,0,0,0-17.6-17.6H79.44c-.64.29-1.3.56-2,.81a38.19,38.19,0,0,1-28.75-.81H35.58A17.6,17.6,0,0,0,18,118.84v2.06q2.47-1.79,5.22-3.38Z"/><path class="cls-1" d="M102.66,52.23a19.26,19.26,0,0,1-2.7,1.16,38,38,0,0,1,2.26,13,37.45,37.45,0,0,1-.29,4.65,11.06,11.06,0,0,0,7.79-10.58V46A21.32,21.32,0,0,1,102.66,52.23Z"/><path class="cls-1" d="M27,57.36c.66-.11,1.33-.24,2-.41a23,23,0,0,0,11.07-6.56h0a32.56,32.56,0,0,1,8-2.08c9.72-1.2,19.29,2.11,29.48,4.36a82.24,82.24,0,0,0,9.91,1.63c1.53.15,3.08.23,4.64.25A23,23,0,0,0,100,53.39a19.26,19.26,0,0,0,2.7-1.16A21.32,21.32,0,0,0,109.72,46l0,0c10.2-13.32,11-33.51,7.89-40.75a15.43,15.43,0,0,0-1.54-2.95A3.55,3.55,0,0,0,113.53.5a3,3,0,0,0-1.78.57c-6.57,4.15-10,13.84-19,13.29H58.31A29.2,29.2,0,0,0,35.52,25.28a11,11,0,0,0-6.46-2.09h0A11.08,11.08,0,0,0,18,34.27V58.51a11.07,11.07,0,0,0,8.09,10.66C26,68.24,26,67.29,26,66.34A38,38,0,0,1,27,57.36Z"/><path class="cls-1" d="M77.48,102.05c.66-.25,1.32-.52,2-.81A38.13,38.13,0,0,0,101.93,71a37.45,37.45,0,0,0,.29-4.65,38,38,0,0,0-2.26-13,23,23,0,0,1-7.75,1.16c-1.56,0-3.11-.1-4.64-.25a82.24,82.24,0,0,1-9.91-1.63c-10.19-2.25-19.76-5.56-29.48-4.36a32.56,32.56,0,0,0-8,2.08h0A23,23,0,0,1,29.06,57c-.7.17-1.37.3-2,.41a38,38,0,0,0-1.07,9c0,1,0,1.9.11,2.83a38.15,38.15,0,0,0,51.41,32.88Z"/><path class="cls-2" d="M29.49,114.27c-2.15,1-4.22,2-6.19,3.19C25.15,116.4,27.22,115.31,29.49,114.27Z"/><path class="cls-1" d="M104.21,133.24a59.06,59.06,0,0,0,1.18,18.42,114.59,114.59,0,0,0,22.2-8.55,34.16,34.16,0,0,0-3.73-9.17h0a45.21,45.21,0,0,0-12.18-13.27q-1.89-1.41-4-2.7A59.43,59.43,0,0,0,104.21,133.24Z"/><path class="cls-1" d="M26.87,133.24a59.86,59.86,0,0,0-3.67-15.72q-2.74,1.59-5.22,3.38C9.25,127.19,3.07,135.17.59,144l.3.15a103.2,103.2,0,0,0,24.45,9A59.63,59.63,0,0,0,26.87,133.24Z"/><path class="cls-2" d="M31,113.62l-1.26.55Z"/><path class="cls-1" d="M91.68,131.38a101.53,101.53,0,0,1,4-19.34c-2-.75-4.1-1.44-6.24-2a1.51,1.51,0,0,1-.09.18c-3,6.08-12.52,10.74-24,11.11C53,121.68,42.5,117,40,110.38c-1.94.57-3.84,1.21-5.68,1.9.37-.14.73-.28,1.09-.4a101.08,101.08,0,0,1,4,19.5A101.6,101.6,0,0,1,39,155.76a164.33,164.33,0,0,0,20.27,1.55h0q4.07.06,8.21-.07a169.5,169.5,0,0,0,24.39-2.53A101.94,101.94,0,0,1,91.68,131.38Z"/><path class="cls-2" d="M32.12,113.13l-.64.27Z"/><path class="cls-2" d="M33.67,112.52l-.49.19Z"/><path class="cls-1" d="M39.4,131.38a101.08,101.08,0,0,0-4-19.5c-.36.12-.72.26-1.09.4l-.63.24-.49.19-1.06.42-.64.27-.51.22-1.26.55-.11,0-.11,0c-2.27,1-4.34,2.13-6.19,3.19l-.1.06h0a59.86,59.86,0,0,1,3.67,15.72,59.63,59.63,0,0,1-1.53,19.94h0c2.1.59,4.41,1.14,6.91,1.61s4.67.76,6.77,1h0A101.6,101.6,0,0,0,39.4,131.38Z"/><path class="cls-1" d="M104.21,133.24A59.43,59.43,0,0,1,107.72,118h0a39.39,39.39,0,0,0-5.7-3.44A40.16,40.16,0,0,0,95.64,112h0a101.66,101.66,0,0,0-3.72,42.67h0c2.22-.35,4.56-.8,7-1.36,2.29-.52,4.44-1.09,6.47-1.69h0A59.06,59.06,0,0,1,104.21,133.24Z"/></g></g></svg>