<svg xmlns="http://www.w3.org/2000/svg" viewBox="0 0 194 194"><defs><style>.cls-1{fill:#2379e6;}.cls-2,.cls-3{fill:#fff;}.cls-2{stroke:#fff;stroke-miterlimit:10;stroke-width:2px;}</style></defs><title>fiesta</title><g id="Capa_2" data-name="Capa 2"><g id="Capa_1-2" data-name="Capa 1"><rect class="cls-1" width="194" height="194" rx="22.45"/><path class="cls-2" d="M137.33,52.53c5.15,26.45-11.59,56.17-42.4,71.07C63.42,109,46.14,79.12,51.2,52.53c3.61-19,19.89-43.07,43.07-43.06S133.66,33.65,137.33,52.53Z"/><path class="cls-3" d="M93.76,124c-2.15,4.52-5.69,12.06-2.6,16.84,1.43,2.21,4.2,3.47,6,5.32,3,3,5.34,7.3,2.08,11.3a24.57,24.57,0,0,1-3.09,2.58c-4.19,3.61-8,8.32-7.42,14.2a9.61,9.61,0,0,0,2.72,5.93c2.57,2.58,11,3.88,9.34,9.2-.47,1.54,1.94,2.2,2.41.66,1.49-4.85-2.49-7.4-6.25-9.38-5.95-3.13-7.39-8.38-3.44-14.16,2-3,5.08-4.68,7.5-7.27,3.3-3.55,2.72-8.52.11-12.31-1.56-2.26-3.75-3.63-5.7-5.45-4.76-4.42-1.86-11.34.46-16.2.69-1.45-1.46-2.72-2.16-1.26Z"/><path class="cls-3" d="M93.91,123.43c-4.39-.5-9.38-.75-12.81,2.54-2,1.94-3.53,5.61-1.67,8.17s5.46,1.85,8,.55a14.69,14.69,0,0,0,7.59-10.24l-2.29.3c2.2,3.58,2.36,8.86,6,11.48a7.26,7.26,0,0,0,9.56-10.83c-3.06-3.59-7.87-3.94-12.26-3.69-1.6.09-1.61,2.59,0,2.5,2.83-.16,5.91-.29,8.46,1.23,6.33,3.76,0,15.3-6,6.75-1.75-2.52-2-6-3.65-8.7a1.26,1.26,0,0,0-2.28.3,13,13,0,0,1-2.73,5.87,12.13,12.13,0,0,1-3.07,2.54q-2.4,2.31-4-.45-3.33-1.55,0-4a6.63,6.63,0,0,1,4.24-1.87,20.76,20.76,0,0,1,6.81.06c1.6.18,1.58-2.32,0-2.5Z"/></g></g></svg>