<svg id="Capa_1" data-name="Capa 1" xmlns="http://www.w3.org/2000/svg" viewBox="0 0 582.31 553.35"><defs><style>.cls-1,.cls-3{fill:#fff;}.cls-2{fill:#1d1d1b;}.cls-3{stroke:#fff;stroke-miterlimit:10;stroke-width:15px;}</style></defs><title>LOGO_blanco</title><path class="cls-1" d="M268.66,396.44H234.11v-12.3h83.62v12.3H283.19v101.9H268.66Z" transform="translate(-7.04 -158.94)"/><path class="cls-1" d="M334.19,387.13c0-5.62,4.32-9.25,9.89-9.25s9.88,3.63,9.88,9.25c0,5.4-4.32,9.25-9.88,9.25S334.19,392.53,334.19,387.13Zm2.62,26.63h14.31v84.58H336.81Z" transform="translate(-7.04 -158.94)"/><path class="cls-1" d="M379.61,413.76h11.82L392.64,426h.48c7.4-8,16.25-14.35,26.32-14.35,12.93,0,19.86,6.19,23.35,16.12,8.78-9.51,17.6-16.12,27.89-16.12,17.38,0,25.74,11.5,25.74,33.08v53.59H482.1V446.6c0-15.76-5-22.5-15.73-22.5-6.56,0-13.38,4.29-21.2,13v61.25H430.86V446.6c0-15.76-5-22.5-15.74-22.5-6.34,0-13.37,4.29-21.2,13v61.25H379.61Z" transform="translate(-7.04 -158.94)"/><path class="cls-1" d="M517.57,456.16c0-27.53,18.55-44.49,38-44.49,21.58,0,33.75,15.5,33.75,39.69a45.61,45.61,0,0,1-.66,8.13h-57c1,17.92,12,29.53,28.1,29.53,8.12,0,14.78-2.61,21-6.75l5.12,9.39c-7.41,4.85-16.42,8.77-27.93,8.77C535.52,500.43,517.57,483.94,517.57,456.16Zm59.13-6.92c0-16.95-7.62-26.16-20.85-26.16-11.89,0-22.52,9.54-24.26,26.16Z" transform="translate(-7.04 -158.94)"/><path class="cls-1" d="M96.35,356,105,345.32c8.22,9.13,19.64,15.14,31.51,15.14,15,0,23.87-8,23.87-19.86,0-12.47-8.27-16.45-19-21.49L125,311.37c-10.64-4.86-23.12-13.49-23.12-31.46,0-18.67,15.2-32.43,35.95-32.43a45.7,45.7,0,0,1,33.62,15.13l-7.7,10c-7-7.06-15.37-11.45-25.92-11.45-12.81,0-21.29,6.91-21.29,17.84,0,11.77,10,16.17,18.9,20.22l16.28,7.53c13.21,6.08,23.53,14.5,23.53,32.67,0,19.3-14.91,34.72-38.92,34.72A53.08,53.08,0,0,1,96.35,356Z" transform="translate(-7.04 -158.94)"/><path class="cls-1" d="M189.92,326.77c0-30.2,19.07-47.6,40.69-47.6,11.1,0,18.8,4.9,24.75,10.62L248,299.91c-4.93-4.76-10.13-8-16.79-8-15.31,0-26.54,14.11-26.54,34.85s10.61,34.61,26.16,34.61c7.73,0,14.58-4,19.86-9l6.2,10.26c-7.6,7.25-17.19,11.5-27.34,11.5C207.08,374.13,189.92,356.73,189.92,326.77Z" transform="translate(-7.04 -158.94)"/><path class="cls-1" d="M275.55,239.26h14.31v36.28l-.51,18.6c7.89-8.17,16.46-15,28.08-15,17.82,0,25.82,12.3,25.82,35.39V371.9H328.94V316.54c0-16.86-4.77-24.08-16-24.08-8.65,0-14.64,4.73-23.12,13.9V371.9H275.55Z" transform="translate(-7.04 -158.94)"/><path class="cls-2" d="M363.92,326.77c0-30.2,18.46-47.6,39.19-47.6s39.19,17.4,39.19,47.6c0,30-18.46,47.36-39.19,47.36S363.92,356.73,363.92,326.77Zm63.59,0c0-20.74-9.85-34.85-24.4-34.85s-24.4,14.11-24.4,34.85,9.85,34.61,24.4,34.61S427.51,347.51,427.51,326.77Z" transform="translate(-7.04 -158.94)"/><path class="cls-2" d="M458.23,326.77c0-30.2,18.46-47.6,39.19-47.6s39.19,17.4,39.19,47.6c0,30-18.46,47.36-39.19,47.36S458.23,356.73,458.23,326.77Zm63.59,0c0-20.74-9.86-34.85-24.4-34.85S473,306,473,326.77s9.86,34.61,24.41,34.61S521.82,347.51,521.82,326.77Z" transform="translate(-7.04 -158.94)"/><path class="cls-1" d="M558.12,353.72V239.26h14.31V354.84c0,4.68,1.9,6.54,4,6.54a11.71,11.71,0,0,0,3.14-.37l1.94,11.69a21.56,21.56,0,0,1-8.24,1.43C562.53,374.13,558.12,366.81,558.12,353.72Z" transform="translate(-7.04 -158.94)"/><path class="cls-1" d="M232.75,455.57,100.36,568.41l11.3,13.26,132.47-112.9A63.84,63.84,0,0,1,232.75,455.57Z" transform="translate(-7.04 -158.94)"/><path class="cls-3" d="M97.31,621.5a284.1,284.1,0,0,1-48.52-65A284,284,0,0,0,97.31,621.5Z" transform="translate(-7.04 -158.94)"/><path class="cls-3" d="M97.77,622l-.46-.46Z" transform="translate(-7.04 -158.94)"/><path class="cls-3" d="M98,622.2c1.37,1.37,2.83,2.8,4.36,4.26q-2.33-2.22-4.6-4.5Z" transform="translate(-7.04 -158.94)"/><path class="cls-3" d="M102.46,626.55l-.09-.09Z" transform="translate(-7.04 -158.94)"/><path class="cls-3" d="M175.34,676.94l-.47-.22Z" transform="translate(-7.04 -158.94)"/><path class="cls-3" d="M174.87,676.72a284.29,284.29,0,0,1-72.41-50.17A283.72,283.72,0,0,0,174.87,676.72Z" transform="translate(-7.04 -158.94)"/><path class="cls-3" d="M42.64,544.51c-.09-.18-.18-.35-.26-.53C42.46,544.16,42.55,544.33,42.64,544.51Z" transform="translate(-7.04 -158.94)"/><path class="cls-3" d="M39.59,538l-.06-.13Z" transform="translate(-7.04 -158.94)"/><path class="cls-3" d="M39.53,537.88c-.82-1.83-1.63-3.67-2.41-5.53C37.91,534.22,38.71,536.07,39.53,537.88Z" transform="translate(-7.04 -158.94)"/><path class="cls-3" d="M48.79,556.51l-.08-.15Z" transform="translate(-7.04 -158.94)"/><path class="cls-3" d="M42.38,544c-1-2-1.89-4-2.79-6Q41,541,42.38,544Z" transform="translate(-7.04 -158.94)"/><path class="cls-3" d="M181.13,679.64q-2.91-1.32-5.79-2.7C177.24,677.85,179.17,678.76,181.13,679.64Z" transform="translate(-7.04 -158.94)"/><path class="cls-3" d="M230.48,696.67q-5.86-1.42-12-3.2Q224.44,695.2,230.48,696.67Z" transform="translate(-7.04 -158.94)"/><path class="cls-3" d="M48.71,556.36q-3.18-5.83-6.07-11.85Q45.6,550.65,48.71,556.36Z" transform="translate(-7.04 -158.94)"/><path class="cls-3" d="M209.32,690.62,206,689.51C207.1,689.89,208.21,690.25,209.32,690.62Z" transform="translate(-7.04 -158.94)"/><path class="cls-3" d="M206,689.51q-2.24-.76-4.45-1.57Q203.78,688.75,206,689.51Z" transform="translate(-7.04 -158.94)"/><path class="cls-3" d="M211.17,691.22l-1.85-.6Z" transform="translate(-7.04 -158.94)"/><path class="cls-3" d="M218.48,693.46q-3.61-1.05-7.31-2.24C213.6,692,216,692.75,218.48,693.46Z" transform="translate(-7.04 -158.94)"/><path class="cls-3" d="M218.5,693.47h0Z" transform="translate(-7.04 -158.94)"/><path class="cls-3" d="M23.81,493.46c-.2-.76-.4-1.53-.59-2.29C23.41,491.94,23.61,492.7,23.81,493.46Z" transform="translate(-7.04 -158.94)"/><path class="cls-3" d="M195.65,685.73l-2.23-.87C194.16,685.16,194.91,685.44,195.65,685.73Z" transform="translate(-7.04 -158.94)"/><path class="cls-3" d="M188.24,682.75,186.6,682Z" transform="translate(-7.04 -158.94)"/><path class="cls-3" d="M198.87,687l-3.22-1.22Z" transform="translate(-7.04 -158.94)"/><path class="cls-3" d="M184.39,681.1l2.21.94c-1.59-.68-3.17-1.36-4.75-2.07Z" transform="translate(-7.04 -158.94)"/><path class="cls-3" d="M193.42,684.86c-1.74-.69-3.46-1.39-5.18-2.11C190,683.47,191.7,684.18,193.42,684.86Z" transform="translate(-7.04 -158.94)"/><path class="cls-3" d="M181.85,680l-.72-.33Z" transform="translate(-7.04 -158.94)"/><path class="cls-3" d="M37.12,532.35l-.54-1.26Z" transform="translate(-7.04 -158.94)"/><path class="cls-3" d="M17.7,463.74c-.29-1.89-.55-3.78-.8-5.68Q17.26,460.85,17.7,463.74Z" transform="translate(-7.04 -158.94)"/><path class="cls-3" d="M17.94,465.32l-.24-1.58Z" transform="translate(-7.04 -158.94)"/><path class="cls-3" d="M18.8,470.49c-.31-1.72-.59-3.44-.86-5.17Q18.33,467.87,18.8,470.49Z" transform="translate(-7.04 -158.94)"/><path class="cls-3" d="M16.77,457q-.87-6.88-1.4-13.85C15.7,447.55,16.16,452.18,16.77,457Z" transform="translate(-7.04 -158.94)"/><path class="cls-3" d="M15.37,443.17v0Z" transform="translate(-7.04 -158.94)"/><path class="cls-3" d="M19.14,472.42c-.12-.64-.23-1.29-.34-1.93C18.91,471.13,19,471.78,19.14,472.42Z" transform="translate(-7.04 -158.94)"/><path class="cls-3" d="M16.9,458.06c0-.35-.09-.7-.13-1C16.81,457.36,16.86,457.71,16.9,458.06Z" transform="translate(-7.04 -158.94)"/><path class="cls-3" d="M22.08,486.49c-.19-.77-.36-1.54-.54-2.31C21.72,485,21.89,485.72,22.08,486.49Z" transform="translate(-7.04 -158.94)"/><path class="cls-3" d="M23.22,491.17q-.6-2.32-1.14-4.68Q22.62,488.82,23.22,491.17Z" transform="translate(-7.04 -158.94)"/><path class="cls-3" d="M21.54,484.18q-.52-2.34-1-4.71Q21,481.81,21.54,484.18Z" transform="translate(-7.04 -158.94)"/><path class="cls-3" d="M20.52,479.47l-.45-2.18Z" transform="translate(-7.04 -158.94)"/><path class="cls-3" d="M20.07,477.29c-.32-1.62-.63-3.24-.93-4.87C19.43,474,19.74,475.65,20.07,477.29Z" transform="translate(-7.04 -158.94)"/><polygon class="cls-3" points="7.5 262.38 7.5 262.38 7.5 262.38 7.5 262.38"/><path class="cls-3" d="M32.09,519.72c-.19-.52-.39-1-.57-1.56Z" transform="translate(-7.04 -158.94)"/><path class="cls-3" d="M29.07,511.13c-.51-1.52-1-3.05-1.49-4.58C28.06,508.07,28.56,509.59,29.07,511.13Z" transform="translate(-7.04 -158.94)"/><path class="cls-3" d="M29.69,513l-.62-1.85Z" transform="translate(-7.04 -158.94)"/><path class="cls-3" d="M31.52,518.16q-.94-2.58-1.83-5.18C30.28,514.7,30.89,516.42,31.52,518.16Z" transform="translate(-7.04 -158.94)"/><path class="cls-3" d="M34,524.77c-.66-1.67-1.29-3.36-1.92-5Q33,522.24,34,524.77Z" transform="translate(-7.04 -158.94)"/><path class="cls-3" d="M34.25,525.39l-.24-.62Z" transform="translate(-7.04 -158.94)"/><path class="cls-3" d="M34.29,525.48c.75,1.9,1.51,3.76,2.29,5.61-.8-1.89-1.57-3.79-2.33-5.7A.36.36,0,0,0,34.29,525.48Z" transform="translate(-7.04 -158.94)"/><path class="cls-3" d="M25.11,498.25c-.45-1.59-.88-3.18-1.3-4.79C24.23,495.05,24.66,496.64,25.11,498.25Z" transform="translate(-7.04 -158.94)"/><path class="cls-3" d="M15.36,443.09q-.82-10.77-.82-21.77C14.53,427.61,14.74,434.94,15.36,443.09Z" transform="translate(-7.04 -158.94)"/><path class="cls-3" d="M25.7,500.3c-.2-.68-.4-1.37-.59-2.05C25.3,498.94,25.5,499.62,25.7,500.3Z" transform="translate(-7.04 -158.94)"/><path class="cls-3" d="M26.9,504.34c-.41-1.34-.81-2.69-1.2-4C26.09,501.64,26.49,503,26.9,504.34Z" transform="translate(-7.04 -158.94)"/><path class="cls-3" d="M27.58,506.55l-.68-2.21Z" transform="translate(-7.04 -158.94)"/><path class="cls-3" d="M201.55,687.94l-2.68-1C199.76,687.28,200.65,687.62,201.55,687.94Z" transform="translate(-7.04 -158.94)"/><path class="cls-3" d="M298,704.79c-4.77,0-9.51-.13-14.22-.36C289,704.69,293.76,704.79,298,704.79Z" transform="translate(-7.04 -158.94)"/><path class="cls-3" d="M276.67,704l-1.34-.11Z" transform="translate(-7.04 -158.94)"/><path class="cls-3" d="M283.1,704.4q-3.23-.17-6.43-.41C278.88,704.16,281,704.29,283.1,704.4Z" transform="translate(-7.04 -158.94)"/><path class="cls-3" d="M283.78,704.43l-.68,0Z" transform="translate(-7.04 -158.94)"/><polygon class="cls-3" points="290.96 545.85 290.96 545.85 290.96 545.85 290.96 545.85"/><path class="cls-3" d="M230.66,696.72l-.18-.05Z" transform="translate(-7.04 -158.94)"/><path class="cls-3" d="M275.33,703.88c-1.79-.14-3.57-.3-5.35-.47C271.8,703.59,273.58,703.74,275.33,703.88Z" transform="translate(-7.04 -158.94)"/><path class="cls-3" d="M260.3,702.28c-1.2-.15-2.39-.32-3.59-.5C257.92,702,259.11,702.13,260.3,702.28Z" transform="translate(-7.04 -158.94)"/><path class="cls-3" d="M256.71,701.78c-8.15-1.19-16.88-2.83-26-5.06Q243.47,699.84,256.71,701.78Z" transform="translate(-7.04 -158.94)"/><path class="cls-3" d="M263.39,702.68l-3.09-.4Z" transform="translate(-7.04 -158.94)"/><path class="cls-3" d="M270,703.41l-2.32-.24Z" transform="translate(-7.04 -158.94)"/><path class="cls-3" d="M267.66,703.17l-4.27-.49C264.83,702.86,266.25,703,267.66,703.17Z" transform="translate(-7.04 -158.94)"/><path class="cls-3" d="M421.13,676.72l-.47.22Z" transform="translate(-7.04 -158.94)"/><path class="cls-3" d="M420.66,676.94c-1.92.92-3.84,1.82-5.79,2.7C416.83,678.76,418.76,677.85,420.66,676.94Z" transform="translate(-7.04 -158.94)"/><path class="cls-3" d="M493.54,626.55a284.29,284.29,0,0,1-72.41,50.17A283.72,283.72,0,0,0,493.54,626.55Z" transform="translate(-7.04 -158.94)"/><path class="cls-3" d="M498,622.2l.24-.24q-2.28,2.28-4.6,4.5C495.16,625,496.62,623.57,498,622.2Z" transform="translate(-7.04 -158.94)"/><path class="cls-3" d="M493.63,626.46l-.09.09Z" transform="translate(-7.04 -158.94)"/><path class="cls-3" d="M414.87,679.64l-.73.33Z" transform="translate(-7.04 -158.94)"/><path class="cls-3" d="M409.41,682l-1.65.71Z" transform="translate(-7.04 -158.94)"/><path class="cls-3" d="M407.76,682.75c-1.72.72-3.44,1.42-5.18,2.11C404.3,684.18,406,683.47,407.76,682.75Z" transform="translate(-7.04 -158.94)"/><path class="cls-3" d="M411.61,681.1l2.53-1.13c-1.57.71-3.15,1.39-4.73,2.07Z" transform="translate(-7.04 -158.94)"/><path class="cls-3" d="M402.58,684.86l-2.23.87C401.09,685.44,401.84,685.16,402.58,684.86Z" transform="translate(-7.04 -158.94)"/><path class="cls-3" d="M556.47,537.88l-.06.13Z" transform="translate(-7.04 -158.94)"/><path class="cls-3" d="M559.42,531.09l-.54,1.26Z" transform="translate(-7.04 -158.94)"/><path class="cls-3" d="M558.88,532.35c-.78,1.86-1.59,3.7-2.41,5.53C557.29,536.07,558.09,534.22,558.88,532.35Z" transform="translate(-7.04 -158.94)"/><path class="cls-3" d="M561.71,525.48a.36.36,0,0,0,0-.09c-.76,1.91-1.53,3.81-2.33,5.7C560.2,529.24,561,527.38,561.71,525.48Z" transform="translate(-7.04 -158.94)"/><path class="cls-3" d="M547.21,556.51a284.1,284.1,0,0,1-48.52,65A284,284,0,0,0,547.21,556.51Z" transform="translate(-7.04 -158.94)"/><path class="cls-3" d="M553.36,544.51c-1.93,4-4,8-6.07,11.85Q550.4,550.65,553.36,544.51Z" transform="translate(-7.04 -158.94)"/><path class="cls-3" d="M556.41,538c-.9,2-1.84,4-2.79,6C554.56,542,555.5,540,556.41,538Z" transform="translate(-7.04 -158.94)"/><path class="cls-3" d="M547.29,556.36l-.08.15Z" transform="translate(-7.04 -158.94)"/><path class="cls-3" d="M553.62,544c-.08.18-.17.35-.26.53C553.45,544.33,553.54,544.16,553.62,544Z" transform="translate(-7.04 -158.94)"/><path class="cls-3" d="M397.14,687l-2.69,1C395.35,687.62,396.24,687.28,397.14,687Z" transform="translate(-7.04 -158.94)"/><path class="cls-3" d="M328.34,703.17l-2.32.24Z" transform="translate(-7.04 -158.94)"/><path class="cls-3" d="M326,703.41c-1.78.17-3.56.33-5.35.47C322.42,703.74,324.2,703.59,326,703.41Z" transform="translate(-7.04 -158.94)"/><path class="cls-3" d="M320.67,703.88l-1.34.11Z" transform="translate(-7.04 -158.94)"/><path class="cls-3" d="M332.61,702.68l-4.27.49C329.75,703,331.17,702.86,332.61,702.68Z" transform="translate(-7.04 -158.94)"/><path class="cls-3" d="M400.35,685.73,397.14,687Z" transform="translate(-7.04 -158.94)"/><path class="cls-3" d="M312.22,704.43c-4.71.23-9.45.36-14.22.36C302.24,704.79,307,704.69,312.22,704.43Z" transform="translate(-7.04 -158.94)"/><path class="cls-3" d="M335.7,702.28l-3.09.4Z" transform="translate(-7.04 -158.94)"/><polygon class="cls-3" points="290.96 545.85 290.96 545.85 290.96 545.85 290.96 545.85"/><path class="cls-3" d="M312.9,704.4l-.68,0Z" transform="translate(-7.04 -158.94)"/><path class="cls-3" d="M319.33,704q-3.21.24-6.43.41C315,704.29,317.12,704.16,319.33,704Z" transform="translate(-7.04 -158.94)"/><path class="cls-3" d="M390,689.51l-3.32,1.11C387.79,690.25,388.9,689.89,390,689.51Z" transform="translate(-7.04 -158.94)"/><path class="cls-3" d="M386.68,690.62l-1.85.6Z" transform="translate(-7.04 -158.94)"/><path class="cls-3" d="M339.29,701.78c-1.2.18-2.39.35-3.59.5C336.89,702.13,338.08,702,339.29,701.78Z" transform="translate(-7.04 -158.94)"/><path class="cls-3" d="M394.45,687.94q-2.22.81-4.45,1.57Q392.22,688.75,394.45,687.94Z" transform="translate(-7.04 -158.94)"/><path class="cls-3" d="M384.83,691.22q-3.69,1.18-7.31,2.24C380,692.75,382.4,692,384.83,691.22Z" transform="translate(-7.04 -158.94)"/><path class="cls-3" d="M377.52,693.46h0Z" transform="translate(-7.04 -158.94)"/><path class="cls-3" d="M365.34,696.72c-9.17,2.23-17.9,3.87-26,5.06Q352.52,699.86,365.34,696.72Z" transform="translate(-7.04 -158.94)"/><path class="cls-3" d="M365.51,696.67l-.17.05Z" transform="translate(-7.04 -158.94)"/><path class="cls-3" d="M377.5,693.47q-6.11,1.77-12,3.2Q371.56,695.2,377.5,693.47Z" transform="translate(-7.04 -158.94)"/><path class="cls-3" d="M498.69,621.5l-.46.46Z" transform="translate(-7.04 -158.94)"/><path class="cls-3" d="M561.75,525.39l.24-.62Z" transform="translate(-7.04 -158.94)"/><path class="cls-3" d="M562,524.77q1-2.53,1.92-5C563.28,521.41,562.65,523.1,562,524.77Z" transform="translate(-7.04 -158.94)"/><path class="cls-3" d="M563.91,519.72l.57-1.56C564.3,518.68,564.1,519.2,563.91,519.72Z" transform="translate(-7.04 -158.94)"/><polygon class="cls-3" points="574.43 262.38 574.43 262.38 574.43 262.38 574.43 262.38"/><polygon class="cls-3" points="7.5 262.38 7.5 262.38 7.5 262.38 7.5 262.38"/><path class="cls-3" d="M23.22,351.47c.19-.76.39-1.53.59-2.29C23.61,349.94,23.41,350.7,23.22,351.47Z" transform="translate(-7.04 -158.94)"/><path class="cls-3" d="M25.11,344.39c.19-.68.39-1.37.59-2.05C25.5,343,25.3,343.7,25.11,344.39Z" transform="translate(-7.04 -158.94)"/><path class="cls-3" d="M20.52,363.17q.5-2.37,1-4.71Q21,360.83,20.52,363.17Z" transform="translate(-7.04 -158.94)"/><path class="cls-3" d="M31.52,324.48c.18-.52.38-1,.57-1.56Z" transform="translate(-7.04 -158.94)"/><path class="cls-3" d="M21.54,358.46c.18-.77.35-1.54.54-2.31C21.89,356.92,21.72,357.69,21.54,358.46Z" transform="translate(-7.04 -158.94)"/><path class="cls-3" d="M29.69,329.66q.89-2.6,1.83-5.18Q30.58,327.09,29.69,329.66Z" transform="translate(-7.04 -158.94)"/><path class="cls-3" d="M29.07,331.51c.21-.61.41-1.23.62-1.85C29.48,330.28,29.28,330.9,29.07,331.51Z" transform="translate(-7.04 -158.94)"/><path class="cls-3" d="M27.58,336.09c.49-1.53,1-3.06,1.49-4.58Q28.31,333.82,27.58,336.09Z" transform="translate(-7.04 -158.94)"/><path class="cls-3" d="M25.7,342.34c.39-1.35.79-2.7,1.2-4C26.49,339.65,26.09,341,25.7,342.34Z" transform="translate(-7.04 -158.94)"/><path class="cls-3" d="M26.9,338.3c.23-.73.45-1.47.68-2.21Z" transform="translate(-7.04 -158.94)"/><path class="cls-3" d="M22.08,356.15c.36-1.56.74-3.13,1.14-4.68Q22.62,353.83,22.08,356.15Z" transform="translate(-7.04 -158.94)"/><path class="cls-3" d="M16.77,385.62c0-.34.09-.69.13-1C16.86,384.93,16.81,385.28,16.77,385.62Z" transform="translate(-7.04 -158.94)"/><path class="cls-3" d="M15.37,399.47q.53-7,1.4-13.85Q15.86,392.9,15.37,399.47Z" transform="translate(-7.04 -158.94)"/><path class="cls-3" d="M15.36,399.55v0Z" transform="translate(-7.04 -158.94)"/><path class="cls-3" d="M16.9,384.59c.25-1.9.51-3.8.8-5.69C17.41,380.83,17.14,382.72,16.9,384.59Z" transform="translate(-7.04 -158.94)"/><path class="cls-3" d="M20.07,365.35l.45-2.18Z" transform="translate(-7.04 -158.94)"/><path class="cls-3" d="M14.54,421.32c0-7.32.27-14.59.82-21.77C14.74,407.7,14.53,415,14.54,421.32Z" transform="translate(-7.04 -158.94)"/><path class="cls-3" d="M17.7,378.9l.24-1.58Z" transform="translate(-7.04 -158.94)"/><path class="cls-3" d="M18.8,372.15c.11-.64.22-1.28.34-1.93C19,370.86,18.91,371.51,18.8,372.15Z" transform="translate(-7.04 -158.94)"/><path class="cls-3" d="M19.14,370.22c.3-1.63.61-3.25.93-4.87C19.74,367,19.43,368.61,19.14,370.22Z" transform="translate(-7.04 -158.94)"/><path class="cls-3" d="M17.94,377.32c.27-1.72.55-3.45.86-5.17Q18.33,374.78,17.94,377.32Z" transform="translate(-7.04 -158.94)"/><path class="cls-3" d="M23.81,349.18q.63-2.4,1.3-4.79C24.66,346,24.23,347.59,23.81,349.18Z" transform="translate(-7.04 -158.94)"/><path class="cls-3" d="M174.87,165.93l.47-.23Z" transform="translate(-7.04 -158.94)"/><path class="cls-3" d="M102.46,216.09a284,284,0,0,1,72.41-50.16A283.72,283.72,0,0,0,102.46,216.09Z" transform="translate(-7.04 -158.94)"/><path class="cls-3" d="M98,220.44l-.24.24q2.28-2.28,4.6-4.5C100.84,217.65,99.38,219.07,98,220.44Z" transform="translate(-7.04 -158.94)"/><path class="cls-3" d="M102.37,216.18l.09-.09Z" transform="translate(-7.04 -158.94)"/><path class="cls-3" d="M97.31,221.14l.46-.46Z" transform="translate(-7.04 -158.94)"/><path class="cls-3" d="M42.38,298.67c.08-.18.17-.36.26-.54C42.55,298.31,42.46,298.49,42.38,298.67Z" transform="translate(-7.04 -158.94)"/><path class="cls-3" d="M36.58,311.55l.54-1.26Z" transform="translate(-7.04 -158.94)"/><path class="cls-3" d="M37.12,310.29c.78-1.85,1.59-3.7,2.41-5.53Q38.3,307.49,37.12,310.29Z" transform="translate(-7.04 -158.94)"/><path class="cls-3" d="M39.53,304.76l.06-.12Z" transform="translate(-7.04 -158.94)"/><path class="cls-3" d="M34.29,317.16a.36.36,0,0,0,0,.09c.76-1.91,1.53-3.81,2.33-5.7C35.8,313.4,35,315.26,34.29,317.16Z" transform="translate(-7.04 -158.94)"/><path class="cls-3" d="M48.79,286.14a284.15,284.15,0,0,1,48.52-65A283.85,283.85,0,0,0,48.79,286.14Z" transform="translate(-7.04 -158.94)"/><path class="cls-3" d="M34,317.87l.24-.62Z" transform="translate(-7.04 -158.94)"/><path class="cls-3" d="M48.71,286.28l.08-.14Z" transform="translate(-7.04 -158.94)"/><path class="cls-3" d="M39.59,304.64c.9-2,1.84-4,2.79-6C41.43,300.63,40.5,302.61,39.59,304.64Z" transform="translate(-7.04 -158.94)"/><path class="cls-3" d="M42.64,298.13c1.93-4,4-8,6.07-11.85Q45.61,292,42.64,298.13Z" transform="translate(-7.04 -158.94)"/><path class="cls-3" d="M32.09,322.92c.63-1.69,1.26-3.37,1.92-5.05Q33,320.4,32.09,322.92Z" transform="translate(-7.04 -158.94)"/><path class="cls-1" d="M223.05,421.59,120.21,386.11l-3.69,10.69L224.37,434A64.27,64.27,0,0,1,223.05,421.59Z" transform="translate(-7.04 -158.94)"/><circle class="cls-2" cx="290.6" cy="515.04" r="11.34"/><circle class="cls-2" cx="37.6" cy="262.04" r="11.34"/><circle class="cls-2" cx="167.67" cy="468.46" r="11.34"/><circle class="cls-2" cx="81.98" cy="379.9" r="11.34"/><circle class="cls-2" cx="422.78" cy="468.46" r="11.34"/></svg>